<?xml version="1.0" encoding="UTF-8" standalone="no"?>
<!DOCTYPE svg PUBLIC "-//W3C//DTD SVG 1.1//EN"
 "http://www.w3.org/Graphics/SVG/1.1/DTD/svg11.dtd">
<!-- Generated by graphviz version 2.40.1 (20161225.0304)
 -->
<!-- Title: %3 Pages: 1 -->
<svg width="52pt" height="700pt"
 viewBox="0.00 0.00 51.99 699.99" xmlns="http://www.w3.org/2000/svg" xmlns:xlink="http://www.w3.org/1999/xlink">
<g id="graph0" class="graph" transform="scale(1 1) rotate(0) translate(4 695.9932)">
<title>%3</title>
<polygon fill="#ffffff" stroke="transparent" points="-4,4 -4,-695.9932 47.9932,-695.9932 47.9932,4 -4,4"/>
<!-- main -->
<g id="node1" class="node">
<title>main</title>
<polygon fill="none" stroke="#000000" points="43.9897,-43.9897 .0034,-43.9897 .0034,-.0034 43.9897,-.0034 43.9897,-43.9897"/>
<text text-anchor="middle" x="21.9966" y="-17.7966" font-family="Times,serif" font-size="14.00" fill="#000000">main</text>
</g>
<!-- fac3 -->
<g id="node2" class="node">
<title>fac3</title>
<polygon fill="none" stroke="#000000" points="39.9966,-115.9932 3.9966,-115.9932 3.9966,-79.9932 39.9966,-79.9932 39.9966,-115.9932"/>
<text text-anchor="middle" x="21.9966" y="-93.7932" font-family="Times,serif" font-size="14.00" fill="#000000">fac</text>
</g>
<!-- fac3&#45;&gt;main -->
<g id="edge1" class="edge">
<title>fac3&#45;&gt;main</title>
<path fill="none" stroke="#ff0000" d="M21.9966,-79.983C21.9966,-72.2853 21.9966,-63.0576 21.9966,-54.2513"/>
<polygon fill="#ff0000" stroke="#ff0000" points="25.4967,-54.2238 21.9966,-44.2238 18.4967,-54.2238 25.4967,-54.2238"/>
</g>
<!-- fac2 -->
<g id="node3" class="node">
<title>fac2</title>
<polygon fill="none" stroke="#000000" points="39.9966,-187.9932 3.9966,-187.9932 3.9966,-151.9932 39.9966,-151.9932 39.9966,-187.9932"/>
<text text-anchor="middle" x="21.9966" y="-165.7932" font-family="Times,serif" font-size="14.00" fill="#000000">fac</text>
</g>
<!-- fac2&#45;&gt;fac3 -->
<g id="edge2" class="edge">
<title>fac2&#45;&gt;fac3</title>
<path fill="none" stroke="#ff0000" d="M21.9966,-151.8245C21.9966,-144.1241 21.9966,-134.9675 21.9966,-126.4098"/>
<polygon fill="#ff0000" stroke="#ff0000" points="25.4967,-126.4064 21.9966,-116.4064 18.4967,-126.4065 25.4967,-126.4064"/>
</g>
<!-- fac1 -->
<g id="node4" class="node">
<title>fac1</title>
<polygon fill="none" stroke="#000000" points="39.9966,-259.9932 3.9966,-259.9932 3.9966,-223.9932 39.9966,-223.9932 39.9966,-259.9932"/>
<text text-anchor="middle" x="21.9966" y="-237.7932" font-family="Times,serif" font-size="14.00" fill="#000000">fac</text>
</g>
<!-- fac1&#45;&gt;fac2 -->
<g id="edge3" class="edge">
<title>fac1&#45;&gt;fac2</title>
<path fill="none" stroke="#ff0000" d="M21.9966,-223.8245C21.9966,-216.1241 21.9966,-206.9675 21.9966,-198.4098"/>
<polygon fill="#ff0000" stroke="#ff0000" points="25.4967,-198.4064 21.9966,-188.4064 18.4967,-198.4065 25.4967,-198.4064"/>
</g>
<!-- fac0 -->
<g id="node5" class="node">
<title>fac0</title>
<polygon fill="none" stroke="#000000" points="39.9966,-331.9932 3.9966,-331.9932 3.9966,-295.9932 39.9966,-295.9932 39.9966,-331.9932"/>
<text text-anchor="middle" x="21.9966" y="-309.7932" font-family="Times,serif" font-size="14.00" fill="#000000">fac</text>
</g>
<!-- fac0&#45;&gt;fac1 -->
<g id="edge4" class="edge">
<title>fac0&#45;&gt;fac1</title>
<path fill="none" stroke="#ff0000" d="M21.9966,-295.8245C21.9966,-288.1241 21.9966,-278.9675 21.9966,-270.4098"/>
<polygon fill="#ff0000" stroke="#ff0000" points="25.4967,-270.4064 21.9966,-260.4064 18.4967,-270.4065 25.4967,-270.4064"/>
</g>
<!-- k13 -->
<g id="node6" class="node">
<title>k13</title>
<polygon fill="none" stroke="#000000" points="39.9966,-619.9932 3.9966,-619.9932 3.9966,-583.9932 39.9966,-583.9932 39.9966,-619.9932"/>
<text text-anchor="middle" x="21.9966" y="-597.7932" font-family="Times,serif" font-size="14.00" fill="#000000">k1</text>
</g>
<!-- k12 -->
<g id="node7" class="node">
<title>k12</title>
<polygon fill="none" stroke="#000000" points="39.9966,-547.9932 3.9966,-547.9932 3.9966,-511.9932 39.9966,-511.9932 39.9966,-547.9932"/>
<text text-anchor="middle" x="21.9966" y="-525.7932" font-family="Times,serif" font-size="14.00" fill="#000000">k1</text>
</g>
<!-- k13&#45;&gt;k12 -->
<g id="edge8" class="edge">
<title>k13&#45;&gt;k12</title>
<path fill="none" stroke="#ff0000" d="M21.9966,-583.8245C21.9966,-576.1241 21.9966,-566.9675 21.9966,-558.4098"/>
<polygon fill="#ff0000" stroke="#ff0000" points="25.4967,-558.4064 21.9966,-548.4064 18.4967,-558.4065 25.4967,-558.4064"/>
</g>
<!-- k11 -->
<g id="node8" class="node">
<title>k11</title>
<polygon fill="none" stroke="#000000" points="39.9966,-475.9932 3.9966,-475.9932 3.9966,-439.9932 39.9966,-439.9932 39.9966,-475.9932"/>
<text text-anchor="middle" x="21.9966" y="-453.7932" font-family="Times,serif" font-size="14.00" fill="#000000">k1</text>
</g>
<!-- k12&#45;&gt;k11 -->
<g id="edge7" class="edge">
<title>k12&#45;&gt;k11</title>
<path fill="none" stroke="#ff0000" d="M21.9966,-511.8245C21.9966,-504.1241 21.9966,-494.9675 21.9966,-486.4098"/>
<polygon fill="#ff0000" stroke="#ff0000" points="25.4967,-486.4064 21.9966,-476.4064 18.4967,-486.4065 25.4967,-486.4064"/>
</g>
<!-- k10 -->
<g id="node9" class="node">
<title>k10</title>
<polygon fill="none" stroke="#000000" points="39.9966,-403.9932 3.9966,-403.9932 3.9966,-367.9932 39.9966,-367.9932 39.9966,-403.9932"/>
<text text-anchor="middle" x="21.9966" y="-381.7932" font-family="Times,serif" font-size="14.00" fill="#000000">k1</text>
</g>
<!-- k11&#45;&gt;k10 -->
<g id="edge6" class="edge">
<title>k11&#45;&gt;k10</title>
<path fill="none" stroke="#ff0000" d="M21.9966,-439.8245C21.9966,-432.1241 21.9966,-422.9675 21.9966,-414.4098"/>
<polygon fill="#ff0000" stroke="#ff0000" points="25.4967,-414.4064 21.9966,-404.4064 18.4967,-414.4065 25.4967,-414.4064"/>
</g>
<!-- k10&#45;&gt;fac0 -->
<g id="edge5" class="edge">
<title>k10&#45;&gt;fac0</title>
<path fill="none" stroke="#ff0000" d="M21.9966,-367.8245C21.9966,-360.1241 21.9966,-350.9675 21.9966,-342.4098"/>
<polygon fill="#ff0000" stroke="#ff0000" points="25.4967,-342.4064 21.9966,-332.4064 18.4967,-342.4065 25.4967,-342.4064"/>
</g>
<!-- id -->
<g id="node10" class="node">
<title>id</title>
<polygon fill="none" stroke="#000000" points="39.9966,-691.9932 3.9966,-691.9932 3.9966,-655.9932 39.9966,-655.9932 39.9966,-691.9932"/>
<text text-anchor="middle" x="21.9966" y="-669.7932" font-family="Times,serif" font-size="14.00" fill="#000000">id</text>
</g>
<!-- id&#45;&gt;k13 -->
<g id="edge9" class="edge">
<title>id&#45;&gt;k13</title>
<path fill="none" stroke="#ff0000" d="M21.9966,-655.8245C21.9966,-648.1241 21.9966,-638.9675 21.9966,-630.4098"/>
<polygon fill="#ff0000" stroke="#ff0000" points="25.4967,-630.4064 21.9966,-620.4064 18.4967,-630.4065 25.4967,-630.4064"/>
</g>
</g>
</svg>
